<?xml version="1.0" encoding="utf-8"?>
<!-- Generator: Adobe Illustrator 19.2.1, SVG Export Plug-In . SVG Version: 6.00 Build 0)  -->
<svg version="1.1" id="Layer_1" xmlns="http://www.w3.org/2000/svg" xmlns:xlink="http://www.w3.org/1999/xlink" x="0px" y="0px"
	 viewBox="0 0 26 26" style="enable-background:new 0 0 26 26;" xml:space="preserve">
<style type="text/css">
	.st0{fill:#D0112B;}
</style>
<g>
	<path class="st0" d="M15.6,13c0,0.2-0.1,0.4-0.3,0.6L3.2,25.7C3,25.9,2.8,26,2.6,26c-0.2,0-0.4-0.1-0.6-0.3l-1.3-1.3
		c-0.2-0.2-0.3-0.4-0.3-0.6c0-0.2,0.1-0.4,0.3-0.6L10.9,13L0.7,2.8C0.5,2.6,0.4,2.4,0.4,2.2c0-0.2,0.1-0.4,0.3-0.6L2,0.3
		C2.2,0.1,2.4,0,2.6,0C2.8,0,3,0.1,3.2,0.3l12.1,12.1C15.5,12.6,15.6,12.8,15.6,13z M25.6,13c0,0.2-0.1,0.4-0.3,0.6L13.2,25.7
		C13,25.9,12.8,26,12.6,26c-0.2,0-0.4-0.1-0.6-0.3l-1.3-1.3c-0.2-0.2-0.3-0.4-0.3-0.6c0-0.2,0.1-0.4,0.3-0.6L20.9,13L10.7,2.8
		c-0.2-0.2-0.3-0.4-0.3-0.6c0-0.2,0.1-0.4,0.3-0.6L12,0.3C12.2,0.1,12.4,0,12.6,0c0.2,0,0.4,0.1,0.6,0.3l12.1,12.1
		C25.5,12.6,25.6,12.8,25.6,13z"/>
</g>
</svg>
