<svg id="Layer_1" data-name="Layer 1" xmlns="http://www.w3.org/2000/svg" viewBox="0 0 24 18.86"><title>email</title><path d="M24,2.14a3.54,3.54,0,0,1-.66,2,6.39,6.39,0,0,1-1.63,1.65l-6.27,4.35-0.57.41-0.72.51-0.7.44a4,4,0,0,1-.77.36A2.11,2.11,0,0,1,12,12h0a2.11,2.11,0,0,1-.67-0.12,4,4,0,0,1-.77-0.36l-0.7-.44-0.72-.51-0.57-.41L5,7.72,2.3,5.81A6.64,6.64,0,0,1,.74,4.27,3.13,3.13,0,0,1,0,2.44,2.7,2.7,0,0,1,.56.7,1.91,1.91,0,0,1,2.14,0H21.86a2.07,2.07,0,0,1,1.51.63A2.06,2.06,0,0,1,24,2.14Zm0,3.94V16.71a2.15,2.15,0,0,1-2.14,2.14H2.14a2.07,2.07,0,0,1-1.51-.63A2.06,2.06,0,0,1,0,16.71V6.08A7.08,7.08,0,0,0,1.35,7.25Q6.2,10.54,8,11.87q0.76,0.56,1.24.88a7.64,7.64,0,0,0,1.27.64,3.86,3.86,0,0,0,1.47.33h0a3.86,3.86,0,0,0,1.47-.33,7.68,7.68,0,0,0,1.27-.64q0.47-.31,1.24-0.88,2.28-1.65,6.67-4.62A7.36,7.36,0,0,0,24,6.08Z"/></svg>