<svg id="Layer_1" data-name="Layer 1" xmlns="http://www.w3.org/2000/svg" viewBox="0 0 24 18.86"><title>email</title><path d="M24,5.12a3.54,3.54,0,0,1-.66,2,6.39,6.39,0,0,1-1.63,1.65l-6.27,4.35-0.57.41-0.72.51-0.7.44a4,4,0,0,1-.77.36A2.11,2.11,0,0,1,12,15h0a2.11,2.11,0,0,1-.67-0.12,4,4,0,0,1-.77-0.36l-0.7-.44-0.72-.51-0.57-.41L5,10.7,2.3,8.79A6.64,6.64,0,0,1,.74,7.24,3.13,3.13,0,0,1,0,5.42,2.7,2.7,0,0,1,.56,3.67,1.91,1.91,0,0,1,2.14,3H21.86A2.16,2.16,0,0,1,24,5.12Zm0,3.94V19.69a2.15,2.15,0,0,1-2.14,2.14H2.14a2.07,2.07,0,0,1-1.51-.63A2.06,2.06,0,0,1,0,19.69V9.06a7.08,7.08,0,0,0,1.35,1.17Q6.2,13.52,8,14.84q0.76,0.56,1.24.88a7.64,7.64,0,0,0,1.27.64,3.86,3.86,0,0,0,1.47.33h0a3.86,3.86,0,0,0,1.47-.33,7.68,7.68,0,0,0,1.27-.64q0.47-.31,1.24-0.88,2.28-1.65,6.67-4.62A7.36,7.36,0,0,0,24,9.06Z" transform="translate(0 -2.98)"/></svg>