<?xml version="1.0" encoding="utf-8"?>
<!-- Generator: Adobe Illustrator 19.2.1, SVG Export Plug-In . SVG Version: 6.00 Build 0)  -->
<svg version="1.1" id="Layer_1" xmlns="http://www.w3.org/2000/svg" xmlns:xlink="http://www.w3.org/1999/xlink" x="0px" y="0px"
	 viewBox="0 0 9 9" style="enable-background:new 0 0 9 9;" xml:space="preserve">
<g>
	<path d="M9,0.3C9,0.4,9,0.6,8.9,0.7L5.7,3.8v4.7c0,0.2-0.1,0.3-0.2,0.4C5.4,9,5.4,9,5.3,9C5.2,9,5.1,9,5,8.9L3.4,7.2
		C3.3,7.2,3.3,7.1,3.3,7V3.8L0.1,0.7C0,0.6,0,0.4,0,0.3C0.1,0.1,0.2,0,0.4,0h8.2C8.8,0,8.9,0.1,9,0.3z"/>
</g>
</svg>
