<svg id="Layer_1" data-name="Layer 1" xmlns="http://www.w3.org/2000/svg" viewBox="0 0 32 25.14"><defs><style>.cls-1{fill:#cf0a2c;}</style></defs><title>grid</title><path class="cls-1" d="M9.14,1.71V5.14A1.71,1.71,0,0,1,7.43,6.86H1.71A1.65,1.65,0,0,1,.5,6.36,1.65,1.65,0,0,1,0,5.14V1.71A1.65,1.65,0,0,1,.5.5,1.65,1.65,0,0,1,1.71,0H7.43A1.65,1.65,0,0,1,8.64.5,1.65,1.65,0,0,1,9.14,1.71Zm0,9.14v3.43A1.71,1.71,0,0,1,7.43,16H1.71A1.66,1.66,0,0,1,.5,15.5,1.66,1.66,0,0,1,0,14.29V10.86A1.65,1.65,0,0,1,.5,9.64a1.65,1.65,0,0,1,1.21-.5H7.43A1.71,1.71,0,0,1,9.14,10.86Zm0,9.14v3.43a1.71,1.71,0,0,1-1.71,1.71H1.71a1.66,1.66,0,0,1-1.21-.5A1.66,1.66,0,0,1,0,23.43V20a1.66,1.66,0,0,1,.5-1.21,1.65,1.65,0,0,1,1.21-.5H7.43A1.71,1.71,0,0,1,9.14,20ZM20.57,1.71V5.14a1.71,1.71,0,0,1-1.71,1.71H13.14a1.71,1.71,0,0,1-1.71-1.71V1.71A1.65,1.65,0,0,1,11.93.5,1.65,1.65,0,0,1,13.14,0h5.71a1.65,1.65,0,0,1,1.21.5A1.65,1.65,0,0,1,20.57,1.71Zm0,9.14v3.43A1.71,1.71,0,0,1,18.86,16H13.14a1.71,1.71,0,0,1-1.71-1.71V10.86a1.71,1.71,0,0,1,1.71-1.71h5.71A1.71,1.71,0,0,1,20.57,10.86Zm0,9.14v3.43a1.71,1.71,0,0,1-1.71,1.71H13.14a1.71,1.71,0,0,1-1.71-1.71V20a1.71,1.71,0,0,1,1.71-1.71h5.71A1.71,1.71,0,0,1,20.57,20ZM32,1.71V5.14a1.71,1.71,0,0,1-1.71,1.71H24.57a1.71,1.71,0,0,1-1.71-1.71V1.71A1.65,1.65,0,0,1,23.36.5,1.65,1.65,0,0,1,24.57,0h5.71A1.65,1.65,0,0,1,31.5.5,1.65,1.65,0,0,1,32,1.71Zm0,9.14v3.43A1.71,1.71,0,0,1,30.29,16H24.57a1.71,1.71,0,0,1-1.71-1.71V10.86a1.71,1.71,0,0,1,1.71-1.71h5.71A1.71,1.71,0,0,1,32,10.86ZM32,20v3.43a1.71,1.71,0,0,1-1.71,1.71H24.57a1.71,1.71,0,0,1-1.71-1.71V20a1.71,1.71,0,0,1,1.71-1.71h5.71A1.71,1.71,0,0,1,32,20Z"/></svg>