<svg id="Layer_1" data-name="Layer 1" xmlns="http://www.w3.org/2000/svg" viewBox="0 0 34.1 34.1"><title>icons</title><path d="M24.46,11.7a3.15,3.15,0,0,0-1.8-1.8,5.26,5.26,0,0,0-1.76-.33c-1,0-1.3-.06-3.84-0.06s-2.84,0-3.84.06a5.26,5.26,0,0,0-1.76.33,3.15,3.15,0,0,0-1.8,1.8,5.26,5.26,0,0,0-.33,1.76c0,1-.06,1.3-0.06,3.84s0,2.84.06,3.84a5.25,5.25,0,0,0,.33,1.76,3.15,3.15,0,0,0,1.8,1.8,5.26,5.26,0,0,0,1.76.33c1,0,1.3.06,3.84,0.06s2.84,0,3.84-.06a5.26,5.26,0,0,0,1.76-.33,3.15,3.15,0,0,0,1.8-1.8,5.26,5.26,0,0,0,.33-1.76c0-1,.06-1.3.06-3.84s0-2.84-.06-3.84A5.26,5.26,0,0,0,24.46,11.7ZM17.05,22.18a4.88,4.88,0,1,1,4.88-4.88A4.88,4.88,0,0,1,17.05,22.18Zm5.07-8.81a1.14,1.14,0,1,1,1.14-1.14A1.14,1.14,0,0,1,22.12,13.37Z"/><circle cx="17.05" cy="17.3" r="3.17"/><path d="M17.05,0A17.05,17.05,0,1,0,34.1,17.05,17.05,17.05,0,0,0,17.05,0Zm9.44,21.22a7,7,0,0,1-.44,2.31,4.86,4.86,0,0,1-2.78,2.78,7,7,0,0,1-2.31.44c-1,0-1.34.06-3.92,0.06s-2.9,0-3.92-.06a7,7,0,0,1-2.31-.44A4.86,4.86,0,0,1,8,23.53a7,7,0,0,1-.44-2.31c0-1-.06-1.34-0.06-3.92s0-2.9.06-3.92A7,7,0,0,1,8,11.08,4.86,4.86,0,0,1,10.83,8.3a7,7,0,0,1,2.31-.44c1,0,1.34-.06,3.92-0.06s2.9,0,3.92.06a7,7,0,0,1,2.31.44,4.86,4.86,0,0,1,2.78,2.78,7,7,0,0,1,.44,2.31c0,1,.06,1.34.06,3.92S26.54,20.21,26.49,21.22Z"/></svg>