<svg id="Layer_1" data-name="Layer 1" xmlns="http://www.w3.org/2000/svg" viewBox="0 0 34.1 34.1"><title>icons</title><path d="M17.05,0A17.05,17.05,0,1,0,34.1,17.05,17.05,17.05,0,0,0,17.05,0ZM12.22,25.09h-3v-11h3v11ZM12.7,11.64a2.1,2.1,0,0,1-1.55.45h0a2,2,0,0,1-1.51-.45,1.75,1.75,0,0,1-.57-1.34,1.78,1.78,0,0,1,.59-1.37,2.14,2.14,0,0,1,1.54-.54A2.09,2.09,0,0,1,12.7,9a1.79,1.79,0,0,1,.58,1.35A1.7,1.7,0,0,1,12.7,11.64ZM26.22,25.09h-4v-6a3.53,3.53,0,0,0-.16-1.88,1.37,1.37,0,0,0-1.29-.68,1.64,1.64,0,0,0-1.13.39,3.26,3.26,0,0,0-1,1,2.42,2.42,0,0,0-.41.92v6.24H15.12c0-3,0-5.46,0-7.35s0-2.88,0-3.24V14.09h3.11v1.37A2.35,2.35,0,0,1,19,14.85a8,8,0,0,1,.81-0.59,3.43,3.43,0,0,1,1.07-.5,4.85,4.85,0,0,1,1.35-.18,3.71,3.71,0,0,1,3,1.3,5.42,5.42,0,0,1,1,3.8v6.41Z"/></svg>