<?xml version="1.0" encoding="utf-8"?>
<!-- Generator: Adobe Illustrator 19.2.1, SVG Export Plug-In . SVG Version: 6.00 Build 0)  -->
<svg version="1.1" id="Layer_1" xmlns="http://www.w3.org/2000/svg" xmlns:xlink="http://www.w3.org/1999/xlink" x="0px" y="0px"
	 viewBox="0 0 28 28" style="enable-background:new 0 0 28 28;" xml:space="preserve">
<g>
	<path d="M27.3,2.1c0.2,0.2,0.4,0.4,0.4,0.7v18.9c0,0.2,0,0.3-0.1,0.5s-0.2,0.2-0.4,0.3l-8.6,3.4c-0.2,0.1-0.4,0.1-0.6,0l-8.2-3.3
		l-8.2,3.3C1.4,26,1.3,26,1.1,26c-0.2,0-0.3,0-0.5-0.1c-0.2-0.2-0.4-0.4-0.4-0.7V6.3c0-0.2,0-0.3,0.1-0.5c0.1-0.1,0.2-0.2,0.4-0.3
		l8.6-3.4C9.6,2,9.8,2,10,2.1l8.2,3.3l8.2-3.3C26.8,2,27.1,2,27.3,2.1z M2,6.9v17L9.3,21V4L2,6.9z M10.1,4v17l7.7,3.1V7L10.1,4z
		 M26,21.1v-17L18.7,7v17L26,21.1z"/>
</g>
</svg>
