<svg id="Layer_1" data-name="Layer 1" xmlns="http://www.w3.org/2000/svg" viewBox="0 0 34.1 34.1"><title>icons</title><path d="M17.05,0A17.05,17.05,0,1,0,34.1,17.05,17.05,17.05,0,0,0,17.05,0Zm7.32,16.11a8.66,8.66,0,0,1-.69,2,7,7,0,0,1-1.14,1.71A5,5,0,0,1,20.89,21a5.22,5.22,0,0,1-2.16.44,3.55,3.55,0,0,1-1.54-.37,2.3,2.3,0,0,1-1.1-1l-0.32,1.28-0.27,1.08q-0.06.24-.23,0.81a5.37,5.37,0,0,1-.3.81l-0.37.71a8.22,8.22,0,0,1-.53.88q-0.29.42-.71,1l-0.16.06-0.1-.11q-0.17-1.79-.17-2.15a12.87,12.87,0,0,1,.25-2.36q0.25-1.31.76-3.28t0.59-2.32a4.37,4.37,0,0,1-.37-1.93,3,3,0,0,1,.59-1.78,1.79,1.79,0,0,1,1.51-.83,1.34,1.34,0,0,1,1.08.46,1.76,1.76,0,0,1,.39,1.17,7.22,7.22,0,0,1-.5,2.18,7.2,7.2,0,0,0-.5,2.14,1.55,1.55,0,0,0,.51,1.19,1.77,1.77,0,0,0,1.25.47,2.44,2.44,0,0,0,1.16-.29,2.62,2.62,0,0,0,.9-0.78,6.67,6.67,0,0,0,.64-1.08,6.3,6.3,0,0,0,.43-1.26,12.63,12.63,0,0,0,.23-1.27,9.39,9.39,0,0,0,.07-1.14,3.88,3.88,0,0,0-1.25-3.08,4.75,4.75,0,0,0-3.26-1.1,5.27,5.27,0,0,0-3.81,1.48,5,5,0,0,0-1.53,3.75,3.61,3.61,0,0,0,.45,1.71L12.85,17a0.86,0.86,0,0,1,.14.35,2.78,2.78,0,0,1-.17.83,0.59,0.59,0,0,1-.42.51l-0.19,0a2.33,2.33,0,0,1-1-.64,3.31,3.31,0,0,1-.7-1.08,6.94,6.94,0,0,1-.37-1.23A6.12,6.12,0,0,1,10,14.53a6.31,6.31,0,0,1,.43-2.32,6,6,0,0,1,1.18-1.9A8.08,8.08,0,0,1,15.43,8a9,9,0,0,1,2.31-.3,7.55,7.55,0,0,1,3.36.76,6.35,6.35,0,0,1,2.52,2.21,5.75,5.75,0,0,1,1,3.28A10.59,10.59,0,0,1,24.37,16.11Z"/></svg>