<svg id="Layer_1" data-name="Layer 1" xmlns="http://www.w3.org/2000/svg" viewBox="0 0 31 31"><defs><style>.cls-1{fill:#9ba3ab;}</style></defs><title>social</title><path class="cls-1" d="M27.5,8.21a3.54,3.54,0,0,1-.66,2,6.39,6.39,0,0,1-1.63,1.65l-6.27,4.35-0.57.41-0.72.51-0.7.44a4,4,0,0,1-.77.36,2.1,2.1,0,0,1-.67.12h0A2.1,2.1,0,0,1,14.82,18,4,4,0,0,1,14,17.59c-0.27-.16-0.5-0.31-0.7-0.44l-0.72-.51-0.57-.41L8.55,13.79,5.8,11.88a6.65,6.65,0,0,1-1.57-1.55A3.13,3.13,0,0,1,3.5,8.51a2.71,2.71,0,0,1,.56-1.74,1.91,1.91,0,0,1,1.59-.7H25.36A2.16,2.16,0,0,1,27.5,8.21Zm0,3.94V22.79a2.15,2.15,0,0,1-2.14,2.14H5.64A2.15,2.15,0,0,1,3.5,22.79V12.15a7.08,7.08,0,0,0,1.35,1.17q4.85,3.29,6.66,4.62,0.76,0.56,1.24.88a7.6,7.6,0,0,0,1.27.64,3.86,3.86,0,0,0,1.47.33h0A3.86,3.86,0,0,0,17,19.46a7.6,7.6,0,0,0,1.27-.64q0.48-.31,1.24-0.88,2.28-1.65,6.67-4.62A7.36,7.36,0,0,0,27.5,12.15Z"/></svg>