<svg id="Layer_1" data-name="Layer 1" xmlns="http://www.w3.org/2000/svg" viewBox="0 0 31 31"><defs><style>.cls-1{fill:#9ba3ab;}</style></defs><title>social</title><path class="cls-1" d="M19.32,15.73a10.34,10.34,0,0,1-1.17,5,8.4,8.4,0,0,1-3.32,3.4,9.83,9.83,0,0,1-4.94,1.22,9.63,9.63,0,0,1-3.82-.78A9.6,9.6,0,0,1,.85,19.32a9.77,9.77,0,0,1,0-7.63A9.6,9.6,0,0,1,6.07,6.46a9.63,9.63,0,0,1,3.82-.78,9.28,9.28,0,0,1,6.58,2.57L13.8,10.81A5.41,5.41,0,0,0,9.89,9.3a5.87,5.87,0,0,0-3,.83,6.21,6.21,0,0,0-3,5.37,6.21,6.21,0,0,0,3,5.37,5.86,5.86,0,0,0,3,.83,6.45,6.45,0,0,0,2-.31,5.18,5.18,0,0,0,1.53-.77,5.62,5.62,0,0,0,1.05-1.05,4.82,4.82,0,0,0,.66-1.11,5,5,0,0,0,.29-1H9.89V14.09h9.27A8.7,8.7,0,0,1,19.32,15.73Zm11.61-1.63v2.81h-2.8v2.8H25.32v-2.8h-2.8V14.09h2.8V11.3h2.81v2.8h2.8Z"/></svg>