<svg id="Layer_1" data-name="Layer 1" xmlns="http://www.w3.org/2000/svg" viewBox="0 0 31 31"><defs><style>.cls-1{fill:#9ba3ab;}</style></defs><title>social</title><path class="cls-1" d="M26.05,9a9.07,9.07,0,0,1-2.17,2.24c0,0.13,0,.31,0,0.56a12.3,12.3,0,0,1-.51,3.47,12.57,12.57,0,0,1-1.55,3.33,13.06,13.06,0,0,1-2.47,2.82,11,11,0,0,1-3.46,2,12.65,12.65,0,0,1-4.33.73,12,12,0,0,1-6.64-1.94,9.17,9.17,0,0,0,1,.05,8.48,8.48,0,0,0,5.37-1.85,4.34,4.34,0,0,1-4-3,5.43,5.43,0,0,0,.82.07,4.46,4.46,0,0,0,1.14-.15,4.26,4.26,0,0,1-2.48-1.49A4.18,4.18,0,0,1,5.8,13V13a4.28,4.28,0,0,0,2,.55A4.32,4.32,0,0,1,6.35,12a4.34,4.34,0,0,1,.07-4.25,12.25,12.25,0,0,0,3.94,3.19,12,12,0,0,0,5,1.33,4.74,4.74,0,0,1-.11-1,4.32,4.32,0,0,1,4.33-4.33,4.17,4.17,0,0,1,3.16,1.37,8.49,8.49,0,0,0,2.75-1,4.2,4.2,0,0,1-1.9,2.38A8.59,8.59,0,0,0,26.05,9Z"/></svg>