<svg id="Layer_1" data-name="Layer 1" xmlns="http://www.w3.org/2000/svg" viewBox="0 0 31 31"><defs><style>.cls-1{fill:#9ba3ab;}</style></defs><title>social</title><path class="cls-1" d="M10.17,8a2.12,2.12,0,0,1-.68,1.63,2.53,2.53,0,0,1-1.82.66h0a2.42,2.42,0,0,1-1.77-.66A2.19,2.19,0,0,1,5.21,8,2.16,2.16,0,0,1,5.9,6.32a2.52,2.52,0,0,1,1.8-.65,2.45,2.45,0,0,1,1.78.65A2.23,2.23,0,0,1,10.17,8Zm-0.28,4.1V25.33H5.47V12.06H9.89Zm15.9,5.67v7.61H21.38v-7.1a3.88,3.88,0,0,0-.54-2.2,1.91,1.91,0,0,0-1.69-.8,2.17,2.17,0,0,0-1.41.46,2.84,2.84,0,0,0-.85,1.14,3.23,3.23,0,0,0-.15,1.08v7.41H12.33q0-5.34,0-8.67t0-4V12.06h4.41V14h0a5.92,5.92,0,0,1,.55-0.75,5.71,5.71,0,0,1,.76-0.7A3.48,3.48,0,0,1,19.18,12a5.33,5.33,0,0,1,1.53-.21,4.76,4.76,0,0,1,3.68,1.52A6.38,6.38,0,0,1,25.79,17.72Z"/></svg>