<svg id="Layer_1" data-name="Layer 1" xmlns="http://www.w3.org/2000/svg" viewBox="0 0 31 31"><defs><style>.cls-1{fill:#9ba3ab;}</style></defs><title>social</title><path class="cls-1" d="M24.41,10.34a10.36,10.36,0,0,1,0,10.33,10.24,10.24,0,0,1-3.74,3.74,10.29,10.29,0,0,1-8.08,1,8.26,8.26,0,0,0,1-2.2q0.12-.45.72-2.83a2.24,2.24,0,0,0,1,.9,3.17,3.17,0,0,0,1.53.38,4.82,4.82,0,0,0,2.89-.92,6,6,0,0,0,2-2.52,9,9,0,0,0,.7-3.62,5.51,5.51,0,0,0-.8-2.87A6,6,0,0,0,19.3,9.51a6.89,6.89,0,0,0-3.42-.84,8.6,8.6,0,0,0-2.62.39,6.87,6.87,0,0,0-2.07,1,7,7,0,0,0-1.46,1.48,6.07,6.07,0,0,0-.9,1.73,5.83,5.83,0,0,0-.29,1.79,5.36,5.36,0,0,0,.54,2.45A3,3,0,0,0,10.65,19a0.33,0.33,0,0,0,.51-0.27l0.11-.42c0.05-.21.09-0.35,0.11-0.4a0.61,0.61,0,0,0-.15-0.58,3,3,0,0,1-.68-2,4.88,4.88,0,0,1,5.06-4.93,4.34,4.34,0,0,1,3.15,1.1,3.8,3.8,0,0,1,1.13,2.85A7.63,7.63,0,0,1,19,18.25a2.69,2.69,0,0,1-2.35,1.59,1.64,1.64,0,0,1-1.31-.58,1.52,1.52,0,0,1-.31-1.4q0.11-.47.36-1.25t0.4-1.38a4.17,4.17,0,0,0,.15-1,1.7,1.7,0,0,0-.36-1.11,1.25,1.25,0,0,0-1-.44,1.71,1.71,0,0,0-1.41.76,3.07,3.07,0,0,0-.58,1.9A3.57,3.57,0,0,0,12.88,17l-1.33,5.6a8.84,8.84,0,0,0-.17,2.37,10.25,10.25,0,0,1-4.46-3.76,10,10,0,0,1-1.7-5.67,10.06,10.06,0,0,1,1.38-5.16,10.23,10.23,0,0,1,3.74-3.74A10.06,10.06,0,0,1,15.5,5.21a10.06,10.06,0,0,1,5.16,1.38A10.24,10.24,0,0,1,24.41,10.34Z"/></svg>