<?xml version="1.0" encoding="utf-8"?>
<!-- Generator: Adobe Illustrator 19.2.1, SVG Export Plug-In . SVG Version: 6.00 Build 0)  -->
<svg version="1.1" id="Layer_1" xmlns="http://www.w3.org/2000/svg" xmlns:xlink="http://www.w3.org/1999/xlink" x="0px" y="0px"
	 viewBox="0 0 34 34" style="enable-background:new 0 0 34 34;" xml:space="preserve">
<path d="M17,0C7.6,0,0,7.6,0,17s7.6,17,17,17s17-7.6,17-17S26.4,0,17,0z M22,11h-2c-0.7,0-0.8,0.1-1,0.3c-0.2,0.3,0,0.6,0,1.1V15
	h2.7l-0.4,3H19v9h-4v-9h-3v-3h3v-2.9c0-1.4,0.3-2.5,1.1-3.3c0.8-0.8,1.9-1.2,3.2-1.2c1.1,0,1.7,0,2.7,0.1V11z"/>
</svg>
