<?xml version="1.0" encoding="utf-8"?>
<!-- Generator: Adobe Illustrator 19.2.1, SVG Export Plug-In . SVG Version: 6.00 Build 0)  -->
<svg version="1.1" id="Layer_1" xmlns="http://www.w3.org/2000/svg" xmlns:xlink="http://www.w3.org/1999/xlink" x="0px" y="0px"
	 viewBox="0 0 28 28" style="enable-background:new 0 0 28 28;" xml:space="preserve">
<g>
	<path d="M23.4,19.5c0,0.2,0,0.6-0.1,0.9c-0.1,0.4-0.2,0.7-0.3,0.9c-0.2,0.4-0.7,0.9-1.6,1.4c-0.8,0.5-1.7,0.7-2.5,0.7
		c-0.2,0-0.5,0-0.7,0c-0.2,0-0.5-0.1-0.8-0.2c-0.3-0.1-0.5-0.1-0.6-0.2c-0.1,0-0.4-0.1-0.7-0.3c-0.4-0.1-0.6-0.2-0.7-0.2
		c-0.9-0.3-1.7-0.7-2.3-1.1c-1.1-0.7-2.3-1.7-3.5-2.9c-1.2-1.2-2.2-2.4-2.9-3.5c-0.4-0.7-0.8-1.5-1.1-2.3c0-0.1-0.1-0.3-0.2-0.7
		C5.1,11.6,5,11.4,5,11.2c0-0.1-0.1-0.3-0.2-0.6C4.7,10.3,4.6,10,4.6,9.8c0-0.2,0-0.5,0-0.7c0-0.8,0.2-1.7,0.7-2.5
		c0.5-0.9,1-1.4,1.4-1.6c0.2-0.1,0.5-0.2,0.9-0.3C8,4.6,8.3,4.6,8.5,4.6c0.1,0,0.2,0,0.3,0C9,4.7,9.2,5,9.5,5.6
		C9.6,5.8,9.8,6,9.9,6.4c0.2,0.3,0.3,0.6,0.5,0.9c0.1,0.3,0.3,0.5,0.4,0.7c0,0,0.1,0.1,0.2,0.3c0.1,0.2,0.2,0.3,0.3,0.5
		c0.1,0.1,0.1,0.3,0.1,0.4c0,0.2-0.1,0.4-0.4,0.7s-0.5,0.5-0.8,0.7c-0.3,0.2-0.6,0.5-0.8,0.7C9.1,11.5,9,11.7,9,11.8
		c0,0.1,0,0.2,0.1,0.3c0,0.1,0.1,0.2,0.1,0.3s0.1,0.2,0.2,0.3C9.5,12.9,9.5,13,9.5,13c0.7,1.2,1.5,2.3,2.3,3.1
		c0.9,0.9,1.9,1.7,3.1,2.3c0,0,0.1,0.1,0.3,0.2s0.3,0.2,0.3,0.2c0.1,0,0.2,0.1,0.3,0.1c0.1,0,0.2,0.1,0.3,0.1c0.2,0,0.4-0.1,0.6-0.4
		c0.2-0.3,0.5-0.5,0.7-0.8c0.2-0.3,0.5-0.6,0.7-0.8c0.3-0.3,0.5-0.4,0.7-0.4c0.1,0,0.3,0,0.4,0.1c0.1,0.1,0.3,0.2,0.5,0.3
		c0.2,0.1,0.3,0.2,0.3,0.2c0.2,0.1,0.5,0.3,0.7,0.4c0.3,0.1,0.5,0.3,0.8,0.5c0.3,0.2,0.6,0.3,0.7,0.4c0.6,0.3,1,0.5,1,0.7
		C23.4,19.2,23.4,19.3,23.4,19.5z"/>
</g>
</svg>
